{
	"asset":{
		"generator":"Khronos glTF Blender I/O v3.5.30",
		"version":"2.0"
	},
	"scene":0,
	"scenes":[
		{
			"name":"Scene",
			"nodes":[
				0,
				1,
				2,
				3
			]
		}
	],
	"nodes":[
		{
			"mesh":0,
			"name":"Cube",
			"translation":[
				0,
				0,
				2.0315423011779785
			]
		},
		{
			"mesh":1,
			"name":"Sphere",
			"scale":[
				1.416365385055542,
				1.416365385055542,
				1.416365385055542
			],
			"translation":[
				0,
				0,
				-1.8389240503311157
			]
		},
		{
			"mesh":2,
			"name":"Cone",
			"translation":[
				2.7688510417938232,
				0,
				0
			]
		},
		{
			"mesh":3,
			"name":"Torus",
			"translation":[
				-3.298029661178589,
				0,
				0
			]
		}
	],
	"materials":[
		{
			"doubleSided":true,
			"name":"Material",
			"pbrMetallicRoughness":{
				"baseColorFactor":[
					0.800000011920929,
					0.800000011920929,
					0.800000011920929,
					1
				],
				"metallicFactor":0,
				"roughnessFactor":0.5
			}
		}
	],
	"meshes":[
		{
			"name":"Cube",
			"primitives":[
				{
					"attributes":{
						"POSITION":0,
						"TEXCOORD_0":1,
						"NORMAL":2
					},
					"indices":3,
					"material":0
				}
			]
		},
		{
			"name":"Sphere",
			"primitives":[
				{
					"attributes":{
						"POSITION":4,
						"TEXCOORD_0":5,
						"NORMAL":6
					},
					"indices":7
				}
			]
		},
		{
			"name":"Cone",
			"primitives":[
				{
					"attributes":{
						"POSITION":8,
						"TEXCOORD_0":9,
						"NORMAL":10
					},
					"indices":11
				}
			]
		},
		{
			"name":"Torus",
			"primitives":[
				{
					"attributes":{
						"POSITION":12,
						"TEXCOORD_0":13,
						"NORMAL":14
					},
					"indices":15
				}
			]
		}
	],
	"accessors":[
		{
			"bufferView":0,
			"componentType":5126,
			"count":24,
			"max":[
				1,
				1,
				1
			],
			"min":[
				-1,
				-1,
				-1
			],
			"type":"VEC3"
		},
		{
			"bufferView":1,
			"componentType":5126,
			"count":24,
			"type":"VEC2"
		},
		{
			"bufferView":2,
			"componentType":5126,
			"count":24,
			"type":"VEC3"
		},
		{
			"bufferView":3,
			"componentType":5123,
			"count":36,
			"type":"SCALAR"
		},
		{
			"bufferView":4,
			"componentType":5126,
			"count":1984,
			"max":[
				0.9999997019767761,
				1,
				0.9999993443489075
			],
			"min":[
				-0.9999990463256836,
				-1,
				-1
			],
			"type":"VEC3"
		},
		{
			"bufferView":5,
			"componentType":5126,
			"count":1984,
			"type":"VEC2"
		},
		{
			"bufferView":6,
			"componentType":5126,
			"count":1984,
			"type":"VEC3"
		},
		{
			"bufferView":7,
			"componentType":5123,
			"count":2880,
			"type":"SCALAR"
		},
		{
			"bufferView":8,
			"componentType":5126,
			"count":128,
			"max":[
				1,
				1,
				1
			],
			"min":[
				-1,
				-1,
				-1
			],
			"type":"VEC3"
		},
		{
			"bufferView":9,
			"componentType":5126,
			"count":128,
			"type":"VEC2"
		},
		{
			"bufferView":10,
			"componentType":5126,
			"count":128,
			"type":"VEC3"
		},
		{
			"bufferView":11,
			"componentType":5123,
			"count":186,
			"type":"SCALAR"
		},
		{
			"bufferView":12,
			"componentType":5126,
			"count":2304,
			"max":[
				1.25,
				0.25,
				1.25
			],
			"min":[
				-1.25,
				-0.25,
				-1.25
			],
			"type":"VEC3"
		},
		{
			"bufferView":13,
			"componentType":5126,
			"count":2304,
			"type":"VEC2"
		},
		{
			"bufferView":14,
			"componentType":5126,
			"count":2304,
			"type":"VEC3"
		},
		{
			"bufferView":15,
			"componentType":5123,
			"count":3456,
			"type":"SCALAR"
		}
	],
	"bufferViews":[
		{
			"buffer":0,
			"byteLength":288,
			"byteOffset":0,
			"target":34962
		},
		{
			"buffer":0,
			"byteLength":192,
			"byteOffset":288,
			"target":34962
		},
		{
			"buffer":0,
			"byteLength":288,
			"byteOffset":480,
			"target":34962
		},
		{
			"buffer":0,
			"byteLength":72,
			"byteOffset":768,
			"target":34963
		},
		{
			"buffer":0,
			"byteLength":23808,
			"byteOffset":840,
			"target":34962
		},
		{
			"buffer":0,
			"byteLength":15872,
			"byteOffset":24648,
			"target":34962
		},
		{
			"buffer":0,
			"byteLength":23808,
			"byteOffset":40520,
			"target":34962
		},
		{
			"buffer":0,
			"byteLength":5760,
			"byteOffset":64328,
			"target":34963
		},
		{
			"buffer":0,
			"byteLength":1536,
			"byteOffset":70088,
			"target":34962
		},
		{
			"buffer":0,
			"byteLength":1024,
			"byteOffset":71624,
			"target":34962
		},
		{
			"buffer":0,
			"byteLength":1536,
			"byteOffset":72648,
			"target":34962
		},
		{
			"buffer":0,
			"byteLength":372,
			"byteOffset":74184,
			"target":34963
		},
		{
			"buffer":0,
			"byteLength":27648,
			"byteOffset":74556,
			"target":34962
		},
		{
			"buffer":0,
			"byteLength":18432,
			"byteOffset":102204,
			"target":34962
		},
		{
			"buffer":0,
			"byteLength":27648,
			"byteOffset":120636,
			"target":34962
		},
		{
			"buffer":0,
			"byteLength":6912,
			"byteOffset":148284,
			"target":34963
		}
	],
	"buffers":[
		{
			"byteLength":155196,
			"uri":"data:application/octet-stream;base64,"
		}
	]
}
